<svg id="Capa_1" enable-background="new 0 0 512 512" height="512" viewBox="0 0 512 512" width="512" xmlns="http://www.w3.org/2000/svg"><g><g><path d="m391.25 476.78-54.96-5.61-37.22 40.83-43.07-112.73-43.07 112.73-37.22-40.83-54.96 5.61 39.1-102.36h192.3z" fill="#ff6398"/></g><path d="m391.25 476.78-54.96-5.61-37.22 40.83-43.07-112.73v-24.85h96.15z" fill="#ff2d75"/><path d="m444.77 229.73-.07.09c-8.78 10.59-12.5 24.48-10.18 38.04l.01.05c3.82 22.39-8.85 44.32-30.16 52.18-12.064 4.451-23.04 14.577-27.92 27.92-6.91 18.76-24.75 30.83-44.2 30.83-14.701-2.337-33.814-1.79-46.15 9.57-8.73 7.24-19.42 10.86-30.1 10.86s-21.37-3.62-30.1-10.86l-.09-.07c-10.58-8.79-24.48-12.51-38.04-10.19l-.05.01c-22.38 3.83-44.32-8.85-52.17-30.15-4.447-12.063-14.577-23.037-27.92-27.92-18.77-6.92-30.84-24.76-30.84-44.22 2.339-14.7 1.786-33.796-9.56-46.14-14.48-17.45-14.48-42.74 0-60.19l.07-.09c8.78-10.59 12.5-24.49 10.18-38.05l-.01-.05c-3.82-22.38 8.85-44.31 30.16-52.17 12.057-4.443 23.037-14.582 27.92-27.92 6.91-18.76 24.75-30.83 44.2-30.83 14.701 2.337 33.814 1.79 46.15-9.57 8.73-7.24 19.42-10.86 30.1-10.86s21.37 3.62 30.1 10.86l.09.07c10.58 8.79 24.48 12.51 38.04 10.19l.05-.01c22.38-3.83 44.32 8.85 52.17 30.15 4.45 12.059 14.584 23.044 27.92 27.92 18.77 6.92 30.84 24.76 30.84 44.21-2.339 14.7-1.785 33.805 9.56 46.15 14.48 17.45 14.48 42.74 0 60.19z" fill="#ffe76a"/><path d="m444.77 229.73-.07.09c-8.78 10.59-12.5 24.48-10.18 38.04l.01.05c3.82 22.39-8.85 44.32-30.16 52.18-12.064 4.451-23.04 14.577-27.92 27.92-6.91 18.76-24.75 30.83-44.2 30.83-14.701-2.337-33.814-1.79-46.15 9.57-8.73 7.24-19.42 10.86-30.1 10.86v-399.27c10.68 0 21.37 3.62 30.1 10.86l.09.07c10.58 8.79 24.48 12.51 38.04 10.19l.05-.01c22.38-3.83 44.32 8.85 52.17 30.15 4.45 12.059 14.584 23.044 27.92 27.92 18.77 6.92 30.84 24.76 30.84 44.21-2.339 14.7-1.785 33.805 9.56 46.15 14.48 17.45 14.48 42.74 0 60.19z" fill="#ffc400"/><path d="m387.58 195.6-131.58 75.99-65.79 37.99c-39.33-22.75-65.79-65.28-65.79-113.98 0 0 65.79-113.97 65.78-113.97h.01c19.36-11.2 41.82-17.61 65.79-17.61 72.67 0 131.58 58.91 131.58 131.58z" fill="#00b3ff"/><path d="m387.58 195.6-131.58 75.99v-207.57c72.67 0 131.58 58.91 131.58 131.58z" fill="#3a80e8"/><path d="m256 162.71c.085 17.517-14.425 32.733-32.89 32.89h-98.69c0-48.7 26.46-91.22 65.78-113.97h.01v15.29c0 18.16 14.73 32.89 32.9 32.89 17.523-.082 32.734 14.424 32.89 32.9z" fill="#bde760"/><path d="m387.58 195.6c0 72.67-58.91 131.58-131.58 131.58-23.97 0-46.44-6.41-65.79-17.6v-15.3c0-18.16 14.73-32.89 32.9-32.89h32.89c18.17 0 32.89-14.73 32.89-32.9-.08-17.52 14.42-32.73 32.9-32.89z" fill="#bde760"/><path d="m387.58 195.6c0 72.67-58.91 131.58-131.58 131.58v-65.79c18.17 0 32.89-14.73 32.89-32.9-.08-17.52 14.42-32.73 32.9-32.89z" fill="#00d880"/></g></svg>