<svg height="250" viewBox="0 0 512 512" width="350" xmlns="http://www.w3.org/2000/svg" xmlns:xlink="http://www.w3.org/1999/xlink"><linearGradient id="a" gradientUnits="userSpaceOnUse" x1="15.5" x2="525.5" y1="496.5" y2="-13.5" data-name="New Gradient Swatch 1"><stop offset="0" stop-color="#003f8a"/><stop offset=".518" stop-color="#00d7df"/><stop offset="1" stop-color="#006df0"/></linearGradient><linearGradient id="c" x1="-12.5" x2="497.5" xlink:href="#a" y1="468.5" y2="-41.5"/><linearGradient id="d" x1="-.5" x2="509.5" xlink:href="#a" y1="480.5" y2="-29.5"/><linearGradient id="e" x1="11.5" x2="521.5" xlink:href="#a" y1="492.5" y2="-17.5"/><linearGradient id="f" x1="39.5" x2="549.5" xlink:href="#a" y1="520.5" y2="10.5"/><linearGradient id="g" x1="51.5" x2="561.5" xlink:href="#a" y1="532.5" y2="22.5"/><linearGradient id="h" x1="63.5" x2="573.5" xlink:href="#a" y1="544.5" y2="34.5"/><linearGradient id="i" x1="87.5" x2="597.5" xlink:href="#a" y1="568.5" y2="58.5"/><g><path d="m424 8h-336a8 8 0 0 0 -8 8v480a8 8 0 0 0 8 8h336a8 8 0 0 0 8-8v-480a8 8 0 0 0 -8-8zm-8 480h-320v-464h320z" fill="url(#a)"/><path d="m400 88a40.04 40.04 0 0 1 -40-40 8 8 0 0 0 -8-8h-67.19a55.876 55.876 0 0 0 -57.62 0h-67.19a8 8 0 0 0 -8 8 40.04 40.04 0 0 1 -40 40 8 8 0 0 0 -8 8v320a8 8 0 0 0 8 8 40.04 40.04 0 0 1 40 40 8 8 0 0 0 8 8h192a8 8 0 0 0 8-8 40.04 40.04 0 0 1 40-40 8 8 0 0 0 8-8v-320a8 8 0 0 0 -8-8zm-144-40a40 40 0 1 1 -40 40 40.04 40.04 0 0 1 40-40zm49.25 66.63 19.37 19.37-13.62 2.73a7.97 7.97 0 0 0 -6.27 6.27l-2.73 13.62-19.37-19.37a56.353 56.353 0 0 0 22.62-22.62zm-75.88 22.62-19.37 19.37-2.73-13.62a7.97 7.97 0 0 0 -6.27-6.27l-13.62-2.73 19.37-19.37a56.353 56.353 0 0 0 22.62 22.62zm162.63 271.32a56.132 56.132 0 0 0 -47.43 47.43h-177.14a56.132 56.132 0 0 0 -47.43-47.43v-305.14a56.132 56.132 0 0 0 47.43-47.43h42.65a55.662 55.662 0 0 0 -9.19 41.86l-35.4 35.39a8 8 0 0 0 4.09 13.5l23.05 4.62 4.62 23.05a8 8 0 0 0 5.52 6.09 8.034 8.034 0 0 0 7.98-2l35.39-35.4a55.063 55.063 0 0 0 19.72 0l35.39 35.4a8 8 0 0 0 13.5-4.09l4.62-23.05 23.05-4.62a8 8 0 0 0 4.09-13.5l-35.4-35.39a55.662 55.662 0 0 0 -9.19-41.86h42.65a56.132 56.132 0 0 0 47.43 47.43z" fill="url(#a)"/><path d="m216 208h80a8 8 0 0 0 0-16h-80a8 8 0 0 0 0 16z" fill="url(#c)"/><path d="m160 232h192a8 8 0 0 0 0-16h-192a8 8 0 0 0 0 16z" fill="url(#d)"/><path d="m320 248a8 8 0 0 0 -8-8h-112a8 8 0 0 0 0 16h112a8 8 0 0 0 8-8z" fill="url(#e)"/><path d="m232 296a8 8 0 0 0 0 16h48a8 8 0 0 0 0-16z" fill="url(#f)"/><path d="m336 320h-160a8 8 0 0 0 0 16h160a8 8 0 0 0 0-16z" fill="url(#g)"/><path d="m288 360a8 8 0 0 0 0-16h-64a8 8 0 0 0 0 16z" fill="url(#h)"/><path d="m304 376h-96a8 8 0 0 0 -8 8v32a8 8 0 0 0 8 8h96a8 8 0 0 0 8-8v-32a8 8 0 0 0 -8-8zm-8 32h-80v-16h80z" fill="url(#i)"/></g></svg>